<svg xmlns="http://www.w3.org/2000/svg" width="20" height="21" viewBox="0 0 20 21" fill="none"><path d="M8.75 19C8.75 19.6904 9.30964 20.25 10 20.25C10.6904 20.25 11.25 19.6904 11.25 19L8.75 19ZM10.8839 1.11612C10.3957 0.627962 9.60427 0.627962 9.11612 1.11612L1.16116 9.07107C0.673009 9.55922 0.673009 10.3507 1.16116 10.8388C1.64932 11.327 2.44078 11.327 2.92893 10.8388L10 3.76777L17.0711 10.8388C17.5592 11.327 18.3507 11.327 18.8388 10.8388C19.327 10.3507 19.327 9.55922 18.8388 9.07107L10.8839 1.11612ZM11.25 19L11.25 2L8.75 2L8.75 19L11.25 19Z" fill="white"></path></svg>