<svg xmlns="http://www.w3.org/2000/svg" width="20" height="21" viewBox="0 0 20 21" fill="none"><path d="M8.75 2C8.75 1.30964 9.30964 0.75 10 0.75C10.6904 0.75 11.25 1.30964 11.25 2L8.75 2ZM10.8839 19.8839C10.3957 20.372 9.60427 20.372 9.11612 19.8839L1.16116 11.9289C0.673009 11.4408 0.673009 10.6493 1.16116 10.1612C1.64932 9.67301 2.44078 9.67301 2.92893 10.1612L10 17.2322L17.0711 10.1612C17.5592 9.67301 18.3507 9.67301 18.8388 10.1612C19.327 10.6493 19.327 11.4408 18.8388 11.9289L10.8839 19.8839ZM11.25 2L11.25 19L8.75 19L8.75 2L11.25 2Z" fill="#AE4029"></path></svg>