<svg xmlns="http://www.w3.org/2000/svg" width="26" height="26" viewBox="0 0 26 26" fill="none"><path fill-rule="evenodd" clip-rule="evenodd" d="M19.622 22.3408L23.2839 18.6789C23.7033 18.2595 23.7033 17.5805 23.2839 17.1622L21.5827 15.461C21.1633 15.0416 20.4843 15.0416 20.066 15.461L16.4041 19.1229C16.2025 19.3246 16.0898 19.597 16.0898 19.8813V22.6551H18.8636C19.1479 22.6551 19.4203 22.5424 19.622 22.3408V22.3408Z" stroke="white" stroke-width="1.60892" stroke-linecap="round" stroke-linejoin="round"></path><path d="M7.50781 15.1457H11.7983" stroke="white" stroke-width="1.60892" stroke-linecap="round" stroke-linejoin="round"></path><path d="M7.50781 9.7824H16.0887" stroke="white" stroke-width="1.60892" stroke-linecap="round" stroke-linejoin="round"></path><path d="M20.3806 10.8556V7.63777C20.3806 5.86044 18.9401 4.41992 17.1627 4.41992H6.4366C4.65927 4.41992 3.21875 5.86044 3.21875 7.63777V17.2913C3.21875 19.0686 4.65927 20.5092 6.4366 20.5092H11.7997" stroke="white" stroke-width="1.60892" stroke-linecap="round" stroke-linejoin="round"></path></svg>