<svg xmlns="http://www.w3.org/2000/svg" width="25" height="22" viewBox="0 0 25 22" fill="none"><path fill-rule="evenodd" clip-rule="evenodd" d="M19.0552 18.6679L22.6115 15.59C23.0187 15.2376 23.0187 14.6669 22.6115 14.3153L20.9594 12.8855C20.5521 12.533 19.8927 12.533 19.4865 12.8855L15.9302 15.9633C15.7344 16.1328 15.625 16.3618 15.625 16.6007V18.932H18.3187C18.5948 18.932 18.8594 18.8373 19.0552 18.6679V18.6679Z" stroke="white" stroke-width="1.5" stroke-linecap="round" stroke-linejoin="round"></path><path d="M7.29199 12.6207H11.4587" stroke="white" stroke-width="1.5" stroke-linecap="round" stroke-linejoin="round"></path><path d="M7.29199 8.11483H15.6253" stroke="white" stroke-width="1.5" stroke-linecap="round" stroke-linejoin="round"></path><path d="M19.7917 9.01463V6.31005C19.7917 4.81622 18.3927 3.60547 16.6667 3.60547H6.25C4.52396 3.60547 3.125 4.81622 3.125 6.31005V14.4238C3.125 15.9176 4.52396 17.1284 6.25 17.1284H11.4583" stroke="white" stroke-width="1.5" stroke-linecap="round" stroke-linejoin="round"></path></svg>