<svg xmlns="http://www.w3.org/2000/svg" width="59" height="59" viewBox="0 0 59 59" fill="none"><path d="M57.5045 29.4945C57.5045 45.2067 44.7489 57.9451 29.0125 57.9451C13.2761 57.9451 0.520482 45.2067 0.520482 29.4945C0.520482 13.7824 13.2761 1.04392 29.0125 1.04392C44.7489 1.04392 57.5045 13.7824 57.5045 29.4945Z" stroke="white" stroke-width="1.04096"></path><path d="M36.9902 28.4493C37.5651 28.4493 38.0312 28.9153 38.0312 29.4902C38.0312 30.0651 37.5651 30.5312 36.9902 30.5312V28.4493ZM20.2973 30.2263C19.8908 29.8198 19.8908 29.1607 20.2973 28.7542L26.9219 22.1295C27.3285 21.723 27.9876 21.723 28.3941 22.1295C28.8006 22.536 28.8006 23.1951 28.3941 23.6016L22.5055 29.4902L28.3941 35.3788C28.8006 35.7853 28.8006 36.4444 28.3941 36.851C27.9876 37.2575 27.3285 37.2575 26.9219 36.851L20.2973 30.2263ZM36.9902 30.5312H21.0334V28.4493H36.9902V30.5312Z" fill="white"></path></svg>