<svg xmlns="http://www.w3.org/2000/svg" width="30" height="30" viewBox="0 0 30 30" fill="none"><circle cx="15" cy="15" r="14.5" stroke="#292F78"></circle><path d="M15.1536 11.9548C15.1536 10.3298 16.6148 8.97811 18.3525 9.00027C18.9611 9.00684 19.5546 9.17763 20.0619 9.4921C20.5691 9.80657 20.9684 10.2513 21.2118 10.773H24L21.4488 13.1587C21.2841 15.5552 20.1497 17.8031 18.276 19.4455C16.4024 21.0878 13.9303 22.0012 11.3623 22C8.83471 22 8.20283 21.1137 8.20283 21.1137C8.20283 21.1137 10.7304 20.2273 11.9941 18.4546C11.9941 18.4546 6.93905 16.091 8.20283 9.59117C8.20283 9.59117 11.3623 12.5456 15.1536 13.1365V11.9548Z" stroke="#292F78" stroke-width="1.5" stroke-linecap="round" stroke-linejoin="round"></path></svg>