<svg xmlns="http://www.w3.org/2000/svg" width="30" height="30" viewBox="0 0 30 30" fill="none"><circle cx="15" cy="15" r="14.5" stroke="#292F78"></circle><path d="M19.0125 21.5C17.6967 21.5033 16.3933 21.2466 15.177 20.7446C13.9608 20.2426 12.8557 19.5052 11.9253 18.5748C10.9949 17.6444 10.2575 16.5393 9.75547 15.323C9.25346 14.1068 8.99673 12.8033 9.00003 11.4875C9.00334 10.5614 9.37355 9.67441 10.0296 9.02073C10.6856 8.36705 11.5739 8.00002 12.5 8.00003V8.00003C12.6528 7.99881 12.8031 8.0388 12.9351 8.11579C13.0671 8.19278 13.1759 8.30392 13.25 8.43753L14.7125 10.9875C14.7995 11.1425 14.8441 11.3177 14.8419 11.4955C14.8397 11.6732 14.7908 11.8472 14.7 12L13.525 13.9625C14.1269 15.3014 15.1987 16.3732 16.5375 16.975L18.5 15.8C18.6529 15.7093 18.8269 15.6603 19.0046 15.6581C19.1823 15.6559 19.3575 15.7006 19.5125 15.7875L22.0625 17.25C22.1961 17.3242 22.3073 17.433 22.3843 17.5649C22.4613 17.6969 22.5013 17.8472 22.5 18C22.4968 18.9251 22.1287 19.8116 21.4757 20.4669C20.8227 21.1222 19.9376 21.4934 19.0125 21.5V21.5Z" stroke="#292F78" stroke-width="1.5" stroke-linecap="round" stroke-linejoin="round"></path></svg>