<svg xmlns="http://www.w3.org/2000/svg" width="67" height="67" viewBox="0 0 67 67" fill="none"><path d="M66.1857 33.183C66.1857 51.2803 51.514 65.9511 33.4155 65.9511C15.317 65.9511 0.645256 51.2803 0.645256 33.183C0.645256 15.0856 15.317 0.414787 33.4155 0.414787C51.514 0.414787 66.1857 15.0856 66.1857 33.183Z" stroke="white" stroke-width="0.829574"></path><path d="M37.457 30.9414H43.9381" stroke="white" stroke-width="1.24436" stroke-linecap="round" stroke-linejoin="round"></path><path d="M37.457 36.125H43.9381" stroke="white" stroke-width="1.24436" stroke-linecap="round" stroke-linejoin="round"></path><path d="M27.7519 36.1259C29.8995 36.1259 31.6405 34.3849 31.6405 32.2373C31.6405 30.0896 29.8995 28.3486 27.7519 28.3486C25.6043 28.3486 23.8633 30.0896 23.8633 32.2373C23.8633 34.3849 25.6043 36.1259 27.7519 36.1259Z" stroke="white" stroke-width="1.24436" stroke-linecap="round" stroke-linejoin="round"></path><path d="M22.7266 40.014C23.0121 38.8988 23.6607 37.9102 24.5702 37.2043C25.4796 36.4984 26.5981 36.1152 27.7494 36.1152C28.9006 36.1152 30.0191 36.4984 30.9286 37.2043C31.838 37.9102 32.4866 38.8988 32.7722 40.014" stroke="white" stroke-width="1.24436" stroke-linecap="round" stroke-linejoin="round"></path><path d="M47.8245 20.5713H19.3079C18.5921 20.5713 18.0117 21.1516 18.0117 21.8675V45.1993C18.0117 45.9151 18.5921 46.4955 19.3079 46.4955H47.8245C48.5404 46.4955 49.1207 45.9151 49.1207 45.1993V21.8675C49.1207 21.1516 48.5404 20.5713 47.8245 20.5713Z" stroke="white" stroke-width="1.24436" stroke-linecap="round" stroke-linejoin="round"></path></svg>