<svg xmlns="http://www.w3.org/2000/svg" width="68" height="67" viewBox="0 0 68 67" fill="none"><path d="M66.8224 33.183C66.8224 51.2803 52.1507 65.9511 34.0522 65.9511C15.9537 65.9511 1.28197 51.2803 1.28197 33.183C1.28197 15.0856 15.9537 0.414787 34.0522 0.414787C52.1507 0.414787 66.8224 15.0856 66.8224 33.183Z" stroke="white" stroke-width="0.829574"></path><path d="M33.8292 40.558C40.9879 40.558 46.7913 34.7546 46.7913 27.5959C46.7913 20.4371 40.9879 14.6338 33.8292 14.6338C26.6704 14.6338 20.8671 20.4371 20.8671 27.5959C20.8671 34.7546 26.6704 40.558 33.8292 40.558Z" stroke="white" stroke-width="1.24436" stroke-linecap="round" stroke-linejoin="round"></path><path d="M33.828 35.3729C38.1233 35.3729 41.6053 31.8909 41.6053 27.5956C41.6053 23.3004 38.1233 19.8184 33.828 19.8184C29.5328 19.8184 26.0508 23.3004 26.0508 27.5956C26.0508 31.8909 29.5328 35.3729 33.828 35.3729Z" stroke="white" stroke-width="1.24436" stroke-linecap="round" stroke-linejoin="round"></path><path d="M41.6053 37.9648V50.9269L33.828 47.0383L26.0508 50.9269V37.9648" stroke="white" stroke-width="1.24436" stroke-linecap="round" stroke-linejoin="round"></path></svg>