<svg xmlns="http://www.w3.org/2000/svg" width="67" height="67" viewBox="0 0 67 67" fill="none"><path d="M66.1154 33.183C66.1154 51.2803 51.4437 65.9511 33.3451 65.9511C15.2466 65.9511 0.574943 51.2803 0.574943 33.183C0.574943 15.0856 15.2466 0.414787 33.3451 0.414787C51.4437 0.414787 66.1154 15.0856 66.1154 33.183Z" stroke="white" stroke-width="0.829574"></path><path d="M14.2852 28.0494L33.7283 17.6797L53.1714 28.0494L33.7283 38.419L14.2852 28.0494Z" stroke="white" stroke-width="1.24436" stroke-linecap="round" stroke-linejoin="round"></path><path d="M43.4481 51.3806V33.2337L33.7266 28.0488" stroke="white" stroke-width="1.24436" stroke-linecap="round" stroke-linejoin="round"></path><path d="M48.6331 30.4629V39.3095C48.632 39.5848 48.5409 39.8522 48.3739 40.071C47.2883 41.5293 42.6868 46.8437 33.7267 46.8437C24.7667 46.8437 20.1651 41.5293 19.0796 40.071C18.9125 39.8522 18.8215 39.5848 18.8203 39.3095V30.4629" stroke="white" stroke-width="1.24436" stroke-linecap="round" stroke-linejoin="round"></path></svg>