<svg xmlns="http://www.w3.org/2000/svg" width="30" height="30" viewBox="0 0 30 30" fill="none"><circle cx="15" cy="15" r="14.5" stroke="#292F78"></circle><path d="M13.8398 13.2969V21.0006" stroke="#292F78" stroke-width="1.8" stroke-linecap="round" stroke-linejoin="round"></path><path d="M10.3203 13.2969V21.0006" stroke="#292F78" stroke-width="1.8" stroke-linecap="round" stroke-linejoin="round"></path><path d="M13.8398 16.6672C13.8398 15.7734 14.1643 14.9161 14.742 14.284C15.3196 13.652 16.103 13.2969 16.9198 13.2969C17.7367 13.2969 18.5201 13.652 19.0977 14.284C19.6753 14.9161 19.9998 15.7734 19.9998 16.6672V21.0006" stroke="#292F78" stroke-width="1.8" stroke-linecap="round" stroke-linejoin="round"></path><path d="M10.32 10.8889C11.049 10.8889 11.64 10.2422 11.64 9.44444C11.64 8.6467 11.049 8 10.32 8C9.59098 8 9 8.6467 9 9.44444C9 10.2422 9.59098 10.8889 10.32 10.8889Z" fill="#292F78"></path></svg>