<svg xmlns="http://www.w3.org/2000/svg" width="41" height="41" viewBox="0 0 41 41" fill="none"><g opacity="1"><circle cx="20.2198" cy="20.2198" r="19.7198" stroke="#292F78"></circle><path d="M25.7802 19.2207C26.3325 19.2207 26.7802 19.6684 26.7802 20.2207C26.7802 20.773 26.3325 21.2207 25.7802 21.2207V19.2207ZM13.9522 20.9278C13.5617 20.5373 13.5617 19.9041 13.9522 19.5136L20.3162 13.1496C20.7067 12.7591 21.3399 12.7591 21.7304 13.1496C22.1209 13.5402 22.1209 14.1733 21.7304 14.5638L16.0735 20.2207L21.7304 25.8776C22.1209 26.2681 22.1209 26.9012 21.7304 27.2918C21.3399 27.6823 20.7067 27.6823 20.3162 27.2918L13.9522 20.9278ZM25.7802 21.2207H14.6593V19.2207H25.7802V21.2207Z" fill="#292F78"></path></g></svg>