<svg xmlns="http://www.w3.org/2000/svg" width="67" height="67" viewBox="0 0 67 67" fill="none"><path d="M65.9943 33.183C65.9943 51.2803 51.3226 65.9511 33.2241 65.9511C15.1255 65.9511 0.453849 51.2803 0.453849 33.183C0.453849 15.0856 15.1255 0.414787 33.2241 0.414787C51.3226 0.414787 65.9943 15.0856 65.9943 33.183Z" stroke="white" stroke-width="0.829574"></path><path d="M17.8945 47.4899V21.5657C17.8945 21.222 18.0311 20.8923 18.2742 20.6492C18.5173 20.4061 18.847 20.2695 19.1907 20.2695H47.7073C48.0511 20.2695 48.3808 20.4061 48.6239 20.6492C48.867 20.8923 49.0036 21.222 49.0036 21.5657V47.4899L43.8187 44.8975L38.6339 47.4899L33.449 44.8975L28.2642 47.4899L23.0794 44.8975L17.8945 47.4899Z" stroke="white" stroke-width="1.24436" stroke-linecap="round" stroke-linejoin="round"></path><path d="M24.375 38.4165L29.5598 28.0469L34.7447 38.4165" stroke="white" stroke-width="1.24436" stroke-linecap="round" stroke-linejoin="round"></path><path d="M25.6719 35.8242H33.4491" stroke="white" stroke-width="1.24436" stroke-linecap="round" stroke-linejoin="round"></path><path d="M37.3398 33.2314H43.8209" stroke="white" stroke-width="1.24436" stroke-linecap="round" stroke-linejoin="round"></path><path d="M40.5781 29.9912V36.4723" stroke="white" stroke-width="1.24436" stroke-linecap="round" stroke-linejoin="round"></path></svg>