<svg xmlns="http://www.w3.org/2000/svg" width="30" height="30" viewBox="0 0 30 30" fill="none"><circle cx="15" cy="15" r="14.5" fill="#292F78" stroke="#292F78"></circle><path d="M14.6023 11.0216L15.9945 9.62939C16.584 9.09215 17.3577 8.80269 18.1551 8.82114C18.9524 8.8396 19.7119 9.16457 20.2759 9.72851C20.8398 10.2925 21.1648 11.052 21.1832 11.8493C21.2017 12.6466 20.9122 13.4204 20.375 14.0099L18.3852 15.9927C18.0984 16.2805 17.7576 16.5089 17.3823 16.6648C17.0071 16.8206 16.6048 16.9008 16.1984 16.9008C15.7921 16.9008 15.3898 16.8206 15.0145 16.6648C14.6393 16.5089 14.2985 16.2805 14.0117 15.9927" fill="#292F78"></path><path d="M14.6023 11.0216L15.9945 9.62939C16.584 9.09215 17.3577 8.80269 18.1551 8.82114C18.9524 8.8396 19.7119 9.16457 20.2759 9.72851C20.8398 10.2925 21.1648 11.052 21.1832 11.8493C21.2017 12.6466 20.9122 13.4204 20.375 14.0099L18.3852 15.9927C18.0984 16.2805 17.7576 16.5089 17.3823 16.6648C17.0071 16.8206 16.6048 16.9008 16.1984 16.9008C15.7921 16.9008 15.3898 16.8206 15.0145 16.6648C14.6393 16.5089 14.2985 16.2805 14.0117 15.9927" stroke="white" stroke-width="1.5" stroke-linecap="round" stroke-linejoin="round"></path><path d="M15.402 18.9808L14.0099 20.373C13.4204 20.9102 12.6466 21.1997 11.8493 21.1813C11.052 21.1628 10.2925 20.8378 9.72851 20.2739C9.16457 19.7099 8.8396 18.9504 8.82114 18.1531C8.80269 17.3558 9.09215 16.582 9.62939 15.9925L11.6192 14.0097C11.906 13.7219 12.2468 13.4935 12.6221 13.3376C12.9973 13.1818 13.3996 13.1016 13.806 13.1016C14.2123 13.1016 14.6146 13.1818 14.9899 13.3376C15.3651 13.4935 15.7059 13.7219 15.9927 14.0097" fill="#292F78"></path><path d="M15.402 18.9808L14.0099 20.373C13.4204 20.9102 12.6466 21.1997 11.8493 21.1813C11.052 21.1628 10.2925 20.8378 9.72851 20.2739C9.16457 19.7099 8.8396 18.9504 8.82114 18.1531C8.80269 17.3558 9.09215 16.582 9.62939 15.9925L11.6192 14.0097C11.906 13.7219 12.2468 13.4935 12.6221 13.3376C12.9973 13.1818 13.3996 13.1016 13.806 13.1016C14.2123 13.1016 14.6146 13.1818 14.9899 13.3376C15.3651 13.4935 15.7059 13.7219 15.9927 14.0097" stroke="white" stroke-width="1.5" stroke-linecap="round" stroke-linejoin="round"></path></svg>