<svg xmlns="http://www.w3.org/2000/svg" width="30" height="30" viewBox="0 0 30 30" fill="none"><circle cx="15" cy="15" r="14.5" stroke="#292F78"></circle><path d="M12.1845 15.4833L18.5056 21.0451C18.5787 21.1097 18.6673 21.1543 18.7628 21.1744C18.8582 21.1944 18.9573 21.1893 19.0502 21.1595C19.1431 21.1297 19.2267 21.0763 19.2927 21.0045C19.3587 20.9326 19.4049 20.8448 19.4267 20.7498L22.0705 9.20444C22.0926 9.10501 22.0874 9.00143 22.0553 8.90475C22.0232 8.80807 21.9654 8.72193 21.8882 8.65551C21.8109 8.5891 21.7171 8.54491 21.6167 8.52766C21.5163 8.5104 21.4131 8.52074 21.3181 8.55756L8.33843 13.6552C7.81812 13.8591 7.88843 14.6185 8.43687 14.731L12.1845 15.4833Z" stroke="#292F78" stroke-width="1.3" stroke-linecap="round" stroke-linejoin="round"></path><path d="M12.1875 15.4859L21.757 8.57422" stroke="#292F78" stroke-width="1.3" stroke-linecap="round" stroke-linejoin="round"></path><path d="M15.3445 18.2617L13.1508 20.4555C13.0725 20.5349 12.9724 20.5894 12.8631 20.6118C12.7539 20.6342 12.6404 20.6237 12.5372 20.5815C12.4339 20.5393 12.3456 20.4673 12.2833 20.3748C12.221 20.2822 12.1877 20.1733 12.1875 20.0617V15.4844" stroke="#292F78" stroke-width="1.3" stroke-linecap="round" stroke-linejoin="round"></path></svg>