<svg xmlns="http://www.w3.org/2000/svg" width="59" height="59" viewBox="0 0 59 59" fill="none"><path d="M57.6469 29.4945C57.6469 45.2067 44.8913 57.9451 29.1549 57.9451C13.4185 57.9451 0.662877 45.2067 0.662877 29.4945C0.662877 13.7824 13.4185 1.04392 29.1549 1.04392C44.8913 1.04392 57.6469 13.7824 57.6469 29.4945Z" stroke="white" stroke-width="1.04096"></path><path d="M21.1756 28.4493C20.6007 28.4493 20.1346 28.9153 20.1346 29.4902C20.1346 30.0651 20.6007 30.5312 21.1756 30.5312V28.4493ZM37.8685 30.2263C38.2751 29.8198 38.2751 29.1607 37.8685 28.7542L31.2439 22.1295C30.8374 21.723 30.1783 21.723 29.7717 22.1295C29.3652 22.536 29.3652 23.1951 29.7717 23.6016L35.6603 29.4902L29.7717 35.3788C29.3652 35.7853 29.3652 36.4444 29.7717 36.851C30.1783 37.2575 30.8374 37.2575 31.2439 36.851L37.8685 30.2263ZM21.1756 30.5312H37.1325V28.4493H21.1756V30.5312Z" fill="white"></path></svg>