<svg xmlns="http://www.w3.org/2000/svg" width="41" height="41" viewBox="0 0 41 41" fill="none"><circle cx="20.2198" cy="20.2198" r="19.7198" stroke="#292F78"></circle><path d="M14.6592 19.2188C14.1069 19.2188 13.6592 19.6665 13.6592 20.2188C13.6592 20.771 14.1069 21.2188 14.6592 21.2188V19.2188ZM26.4872 20.9259C26.8777 20.5353 26.8777 19.9022 26.4872 19.5116L20.1232 13.1477C19.7327 12.7572 19.0995 12.7572 18.709 13.1477C18.3185 13.5382 18.3185 14.1714 18.709 14.5619L24.3658 20.2188L18.709 25.8756C18.3185 26.2661 18.3185 26.8993 18.709 27.2898C19.0995 27.6803 19.7327 27.6803 20.1232 27.2898L26.4872 20.9259ZM14.6592 21.2188H25.7801V19.2188H14.6592V21.2188Z" fill="#292F78"></path></svg>