<svg xmlns="http://www.w3.org/2000/svg" width="34" height="33" viewBox="0 0 34 33" fill="none"><ellipse cx="16.8928" cy="16.5" rx="16.8928" ry="16.5" fill="#292F78"></ellipse><path d="M24.2047 22.6568H18.5877C18.0389 20.8877 17.7645 19.0543 17.7645 17.1565C17.7645 15.2266 18.2649 13.6987 19.2656 12.5729C20.2986 11.4149 21.8158 10.8359 23.8173 10.8359V13.5379C22.2032 13.5379 21.3962 14.5189 21.3962 16.481V17.3977H24.2047V22.6568ZM16.0213 22.6568H10.4042C9.85545 20.8877 9.58105 19.0543 9.58105 17.1565C9.58105 15.2266 10.0814 13.6987 11.0822 12.5729C12.1152 11.4149 13.6324 10.8359 15.6339 10.8359V13.5379C14.0198 13.5379 13.2128 14.5189 13.2128 16.481V17.3977H16.0213V22.6568Z" fill="white"></path></svg>