<svg xmlns="http://www.w3.org/2000/svg" width="33" height="33" viewBox="0 0 33 33" fill="none"><rect width="33" height="33" rx="16.5" fill="url(#paint0_linear_3302_6576)"></rect><path d="M13.7537 16.5425C13.7537 15.0224 14.9853 13.7898 16.5049 13.7898C18.0246 13.7898 19.2568 15.0224 19.2568 16.5425C19.2568 18.0626 18.0246 19.2952 16.5049 19.2952C14.9853 19.2952 13.7537 18.0626 13.7537 16.5425ZM12.2661 16.5425C12.2661 18.8843 14.1638 20.7825 16.5049 20.7825C18.8461 20.7825 20.7438 18.8843 20.7438 16.5425C20.7438 14.2007 18.8461 12.3024 16.5049 12.3024C14.1638 12.3024 12.2661 14.2007 12.2661 16.5425ZM19.921 12.1343C19.9209 12.3303 19.9789 12.5219 20.0877 12.6849C20.1965 12.8479 20.3511 12.975 20.5321 13.05C20.7131 13.1251 20.9123 13.1448 21.1044 13.1066C21.2966 13.0685 21.4732 12.9742 21.6117 12.8357C21.7503 12.6971 21.8448 12.5206 21.8831 12.3284C21.9214 12.1362 21.9018 11.937 21.8269 11.7559C21.752 11.5748 21.6251 11.42 21.4622 11.3111C21.2994 11.2021 21.1079 11.1439 20.912 11.1438H20.9116C20.649 11.144 20.3971 11.2483 20.2114 11.4341C20.0257 11.6198 19.9212 11.8716 19.921 12.1343ZM13.17 23.2638C12.3651 23.2271 11.9277 23.093 11.637 22.9797C11.2516 22.8296 10.9766 22.6509 10.6875 22.3621C10.3983 22.0733 10.2194 21.7984 10.07 21.4129C9.95666 21.1223 9.8226 20.6846 9.78602 19.8795C9.746 19.0091 9.738 18.7477 9.738 16.5426C9.738 14.3375 9.74666 14.0767 9.78602 13.2056C9.82267 12.4005 9.95772 11.9637 10.07 11.6722C10.22 11.2867 10.3987 11.0116 10.6875 10.7224C10.9762 10.4332 11.2509 10.2542 11.637 10.1047C11.9275 9.99139 12.3651 9.85729 13.17 9.82069C14.0401 9.78066 14.3015 9.77267 16.5049 9.77267C18.7084 9.77267 18.9701 9.78132 19.8409 9.82069C20.6458 9.85735 21.0825 9.99244 21.3739 10.1047C21.7593 10.2542 22.0343 10.4336 22.3234 10.7224C22.6126 11.0112 22.7909 11.2867 22.9409 11.6722C23.0542 11.9628 23.1883 12.4005 23.2249 13.2056C23.2649 14.0767 23.2729 14.3375 23.2729 16.5426C23.2729 18.7477 23.2649 19.0084 23.2249 19.8795C23.1882 20.6846 23.0535 21.1221 22.9409 21.4129C22.7909 21.7984 22.6122 22.0735 22.3234 22.3621C22.0347 22.6506 21.7593 22.8296 21.3739 22.9797C21.0833 23.0931 20.6458 23.2272 19.8409 23.2638C18.9708 23.3038 18.7094 23.3118 16.5049 23.3118C14.3005 23.3118 14.0398 23.3038 13.17 23.2638ZM13.1016 8.33516C12.2228 8.37519 11.6223 8.51458 11.0979 8.7187C10.5548 8.92949 10.095 9.21229 9.63558 9.67113C9.17614 10.13 8.89415 10.5906 8.68342 11.1339C8.47936 11.6588 8.34001 12.2591 8.29999 13.1382C8.25931 14.0186 8.25 14.3001 8.25 16.5425C8.25 18.7849 8.25931 19.0664 8.29999 19.9468C8.34001 20.8259 8.47936 21.4262 8.68342 21.9511C8.89415 22.494 9.17621 22.9552 9.63558 23.4138C10.0949 23.8725 10.5548 24.1549 11.0979 24.3663C11.6233 24.5704 12.2228 24.7098 13.1016 24.7498C13.9822 24.7898 14.2632 24.7998 16.5049 24.7998C18.7467 24.7998 19.0281 24.7905 19.9083 24.7498C20.7872 24.7098 21.3873 24.5704 21.912 24.3663C22.4548 24.1549 22.9149 23.8727 23.3743 23.4138C23.8338 22.955 24.1152 22.494 24.3265 21.9511C24.5305 21.4262 24.6705 20.8259 24.7099 19.9468C24.7499 19.0657 24.7592 18.7849 24.7592 16.5425C24.7592 14.3001 24.7499 14.0186 24.7099 13.1382C24.6699 12.259 24.5305 11.6584 24.3265 11.1339C24.1152 10.5909 23.833 10.1307 23.3743 9.67113C22.9156 9.21156 22.4548 8.92949 21.9127 8.7187C21.3873 8.51458 20.7871 8.37453 19.909 8.33516C19.0288 8.29513 18.7474 8.28516 16.5056 8.28516C14.2638 8.28516 13.9822 8.29447 13.1016 8.33516Z" fill="white"></path><defs><linearGradient id="paint0_linear_3302_6576" x1="32.3657" y1="33" x2="-0.634259" y2="-8.88267e-07" gradientUnits="userSpaceOnUse"><stop stop-color="#FBE18A"></stop><stop offset="0.21" stop-color="#FCBB45"></stop><stop offset="0.38" stop-color="#F75274"></stop><stop offset="0.52" stop-color="#D53692"></stop><stop offset="0.74" stop-color="#8F39CE"></stop><stop offset="1" stop-color="#5B4FE9"></stop></linearGradient></defs></svg>