<svg xmlns="http://www.w3.org/2000/svg" width="51" height="51" viewBox="0 0 51 51" fill="none"><path d="M8.66211 39.832H43.0371V16.3945C43.0371 15.9801 42.8725 15.5827 42.5795 15.2897C42.2864 14.9967 41.889 14.832 41.4746 14.832H33.6621C33.2477 14.832 32.8503 14.9967 32.5573 15.2897C32.2642 15.5827 32.0996 15.9801 32.0996 16.3945V21.082H19.5996V10.1445C19.5996 9.73013 19.435 9.3327 19.142 9.03968C18.8489 8.74665 18.4515 8.58203 18.0371 8.58203H10.2246C9.81021 8.58203 9.41278 8.74665 9.11976 9.03968C8.82673 9.3327 8.66211 9.73013 8.66211 10.1445V39.832Z" stroke="#AE4029" stroke-width="2" stroke-linecap="round" stroke-linejoin="round"></path><path d="M19.5996 27.332H8.66211" stroke="#AE4029" stroke-width="2" stroke-linecap="round" stroke-linejoin="round"></path><path d="M19.5996 39.832V21.082" stroke="#AE4029" stroke-width="2" stroke-linecap="round" stroke-linejoin="round"></path><path d="M32.0996 27.332H43.0371" stroke="#AE4029" stroke-width="2" stroke-linecap="round" stroke-linejoin="round"></path><path d="M32.0996 39.832V21.082" stroke="#AE4029" stroke-width="2" stroke-linecap="round" stroke-linejoin="round"></path></svg>