<svg xmlns="http://www.w3.org/2000/svg" width="33" height="33" viewBox="0 0 33 33" fill="none"><rect width="33" height="33" rx="16.5" fill="#006699"></rect><path d="M12.7042 23.186V14.2718H9.74383V23.186H12.7045H12.7042ZM11.2246 13.0549C12.2567 13.0549 12.8993 12.3704 12.8993 11.5149C12.88 10.64 12.2567 9.97461 11.2442 9.97461C10.2311 9.97461 9.56934 10.64 9.56934 11.5149C9.56934 12.3703 10.2117 13.0548 11.2052 13.0548H11.2244L11.2246 13.0549ZM14.3427 23.186H17.3028V18.2084C17.3028 17.9424 17.3222 17.6756 17.4004 17.4856C17.6143 16.9531 18.1013 16.4018 18.9193 16.4018C19.9902 16.4018 20.4189 17.2192 20.4189 18.4177V23.186H23.3789V18.0749C23.3789 15.3369 21.9187 14.0628 19.9711 14.0628C18.3743 14.0628 17.673 14.9561 17.2834 15.5645H17.3031V14.2721H14.3429C14.3815 15.1084 14.3427 23.1863 14.3427 23.1863L14.3427 23.186Z" fill="white"></path></svg>