<svg xmlns="http://www.w3.org/2000/svg" width="154" height="155" viewBox="0 0 154 155" fill="none"><path d="M77 32.8672C71.0437 32.8672 65.3313 35.2333 61.1196 39.4451C56.9078 43.6568 54.5417 49.3692 54.5417 55.3255C54.5417 61.2818 56.9078 66.9942 61.1196 71.206C65.3313 75.4177 71.0437 77.7839 77 77.7839C82.9563 77.7839 88.6687 75.4177 92.8804 71.206C97.0922 66.9942 99.4583 61.2818 99.4583 55.3255C99.4583 49.3692 97.0922 43.6568 92.8804 39.4451C88.6687 35.2333 82.9563 32.8672 77 32.8672ZM77 45.7005C79.5527 45.7005 82.0009 46.7146 83.8059 48.5196C85.6109 50.3247 86.625 52.7728 86.625 55.3255C86.625 57.8782 85.6109 60.3264 83.8059 62.1314C82.0009 63.9365 79.5527 64.9505 77 64.9505C74.4473 64.9505 71.9991 63.9365 70.1941 62.1314C68.3891 60.3264 67.375 57.8782 67.375 55.3255C67.375 52.7728 68.3891 50.3247 70.1941 48.5196C71.9991 46.7146 74.4473 45.7005 77 45.7005ZM35.2917 52.1172C31.0372 52.1172 26.9569 53.8073 23.9485 56.8157C20.9401 59.8241 19.25 63.9043 19.25 68.1589C19.25 74.1905 22.6508 79.388 27.5275 82.1472C29.8375 83.4305 32.4683 84.2005 35.2917 84.2005C38.115 84.2005 40.7458 83.4305 43.0558 82.1472C45.43 80.7997 47.4192 78.8747 48.895 76.5647C44.2204 70.4725 41.6934 63.0045 41.7083 55.3255V53.5289C39.7833 52.6305 37.6017 52.1172 35.2917 52.1172ZM118.708 52.1172C116.398 52.1172 114.217 52.6305 112.292 53.5289V55.3255C112.292 63.0255 109.789 70.4689 105.105 76.5647C105.875 77.7839 106.709 78.7464 107.672 79.7089C110.631 82.5778 114.587 84.1878 118.708 84.2005C121.532 84.2005 124.162 83.4305 126.472 82.1472C131.349 79.388 134.75 74.1905 134.75 68.1589C134.75 63.9043 133.06 59.8241 130.051 56.8157C127.043 53.8073 122.963 52.1172 118.708 52.1172ZM77 90.6172C61.985 90.6172 32.0833 98.1247 32.0833 113.076V122.701H121.917V113.076C121.917 98.1247 92.015 90.6172 77 90.6172ZM30.2225 94.1464C17.8383 95.6222 0 101.911 0 113.076V122.701H19.25V110.316C19.25 103.836 23.6775 98.4455 30.2225 94.1464ZM123.778 94.1464C130.323 98.4455 134.75 103.836 134.75 110.316V122.701H154V113.076C154 101.911 136.162 95.6222 123.778 94.1464ZM77 103.451C86.8175 103.451 97.79 106.659 104.142 109.867H49.8575C56.21 106.659 67.1825 103.451 77 103.451Z" fill="white"></path></svg>