<svg xmlns="http://www.w3.org/2000/svg" width="130" height="131" viewBox="0 0 130 131" fill="none"><path d="M96.959 94.9797C95.5507 90.6464 91.4882 87.4505 86.6673 87.4505H81.2507V71.2005C81.2507 69.7639 80.68 68.3862 79.6641 67.3704C78.6483 66.3545 77.2706 65.7839 75.834 65.7839H43.334V54.9505H54.1673C55.6039 54.9505 56.9817 54.3798 57.9975 53.364C59.0133 52.3482 59.584 50.9704 59.584 49.5339V38.7005H70.4173C73.2905 38.7005 76.046 37.5592 78.0776 35.5275C80.1093 33.4959 81.2507 30.7404 81.2507 27.8672V25.6464C87.7316 28.2592 93.4828 32.4035 98.0121 37.7246C102.541 43.0457 105.714 49.3852 107.258 56.2002C108.802 63.0153 108.672 70.103 106.878 76.8566C105.084 83.6103 101.681 89.8287 96.959 94.9797ZM59.584 108.738C38.1882 106.084 21.6673 87.8839 21.6673 65.7839C21.6673 62.4255 22.1007 59.1755 22.8048 56.088L48.7507 82.0339V87.4505C48.7507 90.3237 49.892 93.0792 51.9237 95.1108C53.9553 97.1425 56.7108 98.2839 59.584 98.2839M65.0007 11.6172C57.8874 11.6172 50.8438 13.0183 44.272 15.7404C37.7002 18.4625 31.7289 22.4524 26.699 27.4822C16.5408 37.6405 10.834 51.418 10.834 65.7839C10.834 80.1497 16.5408 93.9273 26.699 104.085C31.7289 109.115 37.7002 113.105 44.272 115.827C50.8438 118.549 57.8874 119.951 65.0007 119.951C79.3665 119.951 93.1441 114.244 103.302 104.085C113.46 93.9273 119.167 80.1497 119.167 65.7839C119.167 58.6706 117.766 51.627 115.044 45.0552C112.322 38.4834 108.332 32.5121 103.302 27.4822C98.2724 22.4524 92.3011 18.4625 85.7293 15.7404C79.1575 13.0183 72.1139 11.6172 65.0007 11.6172Z" fill="white"></path></svg>