<svg xmlns="http://www.w3.org/2000/svg" width="22" height="22" viewBox="0 0 22 22" fill="none"><g clip-path="url(#clip0_1741_15526)"><path d="M8.25 18.5626H4.125C3.94266 18.5626 3.7678 18.4902 3.63886 18.3612C3.50993 18.2323 3.4375 18.0574 3.4375 17.8751V14.0346C3.43758 13.8525 3.50991 13.6778 3.63859 13.549L14.2364 2.9512C14.3653 2.82237 14.5401 2.75 14.7224 2.75C14.9046 2.75 15.0794 2.82237 15.2084 2.9512L19.0489 6.78917C19.1777 6.91809 19.2501 7.09289 19.2501 7.27515C19.2501 7.45741 19.1777 7.63221 19.0489 7.76113L8.25 18.5626Z" stroke="white" stroke-width="1.43" stroke-linecap="round" stroke-linejoin="round"></path><path d="M18.5625 18.5625H8.25" stroke="white" stroke-width="1.43" stroke-linecap="round" stroke-linejoin="round"></path><path d="M11.6875 5.5L16.5 10.3125" stroke="white" stroke-width="1.43" stroke-linecap="round" stroke-linejoin="round"></path></g><defs><clipPath id="clip0_1741_15526"><rect width="22" height="22" fill="white"></rect></clipPath></defs></svg>