<svg xmlns="http://www.w3.org/2000/svg" width="15" height="21" viewBox="0 0 15 21" fill="none"><path fill-rule="evenodd" clip-rule="evenodd" d="M7.5 20.5C7.5 20.5 15 15.1154 15 8.19231C15 6.15218 14.2098 4.19561 12.8033 2.75302C11.3968 1.31044 9.48912 0.5 7.5 0.5C5.51088 0.5 3.60322 1.31044 2.1967 2.75302C0.790176 4.19561 0 6.15218 0 8.19231C0 15.1154 7.5 20.5 7.5 20.5ZM10.5 8.19411C10.5 9.89345 9.15685 11.271 7.5 11.271C5.84315 11.271 4.5 9.89345 4.5 8.19411C4.5 6.49477 5.84315 5.11719 7.5 5.11719C9.15685 5.11719 10.5 6.49477 10.5 8.19411Z" fill="#091E96"></path></svg>