<svg xmlns="http://www.w3.org/2000/svg" width="33" height="33" viewBox="0 0 33 33" fill="none"><rect width="33" height="33" rx="16.5" fill="#33CCFF"></rect><path d="M24.6903 11.275C24.1454 11.5097 23.5725 11.6731 22.9859 11.7612C23.2602 11.7142 23.6637 11.2201 23.8244 11.0201C24.0684 10.7184 24.2544 10.374 24.3729 10.0044C24.3729 9.97695 24.4003 9.93774 24.3729 9.91813C24.3591 9.91058 24.3436 9.90662 24.3278 9.90662C24.3121 9.90662 24.2966 9.91058 24.2828 9.91813C23.6458 10.2634 22.9678 10.5269 22.265 10.7024C22.2405 10.7099 22.2144 10.7106 22.1896 10.7044C22.1647 10.6982 22.142 10.6853 22.1239 10.6671C22.0692 10.6019 22.0103 10.5404 21.9476 10.4828C21.661 10.2258 21.3357 10.0153 20.9838 9.85931C20.5088 9.66424 19.9956 9.57977 19.4832 9.61225C18.986 9.64368 18.5005 9.77717 18.057 10.0044C17.6203 10.244 17.2365 10.5694 16.9286 10.9613C16.6048 11.3645 16.371 11.8325 16.243 12.3338C16.1374 12.8106 16.1254 13.3034 16.2077 13.7847C16.2077 13.8671 16.2077 13.8789 16.1372 13.8671C13.3437 13.4553 11.0516 12.4632 9.1788 10.3338C9.09652 10.2397 9.05342 10.2397 8.98682 10.3338C8.17187 11.573 8.56759 13.5338 9.58627 14.5024C9.7234 14.6318 9.86445 14.7573 10.0133 14.8749C9.54628 14.8417 9.09062 14.715 8.67337 14.5024C8.59501 14.4514 8.55192 14.4788 8.548 14.573C8.53689 14.7034 8.53689 14.8346 8.548 14.9651C8.62975 15.5904 8.87597 16.1828 9.26147 16.6816C9.64697 17.1805 10.1579 17.5679 10.7421 17.8043C10.8845 17.8653 11.0329 17.9113 11.1848 17.9415C10.7524 18.0267 10.309 18.04 9.87229 17.9807C9.77826 17.9611 9.74299 18.0121 9.77826 18.1023C10.3542 19.6709 11.6041 20.1493 12.5209 20.416C12.6462 20.4356 12.7716 20.4356 12.9127 20.467C12.9127 20.467 12.9127 20.467 12.8892 20.4905C12.6188 20.9846 11.5257 21.3179 11.0242 21.4905C10.1088 21.8196 9.13285 21.9454 8.16403 21.8591C8.01123 21.8356 7.97597 21.8395 7.93679 21.8591C7.89761 21.8787 7.93679 21.9219 7.97988 21.9611C8.17579 22.0905 8.37169 22.2042 8.57542 22.314C9.18195 22.6451 9.82317 22.9082 10.4874 23.0983C13.9274 24.0473 17.7984 23.3493 20.3804 20.7807C22.41 18.765 23.123 15.9847 23.123 13.2004C23.123 13.0946 23.2523 13.0318 23.3268 12.9769C23.8402 12.5765 24.2929 12.1036 24.6707 11.573C24.7361 11.4939 24.7696 11.3932 24.7647 11.2907C24.7647 11.2318 24.7647 11.2436 24.6903 11.275Z" fill="white"></path></svg>