<svg xmlns="http://www.w3.org/2000/svg" width="80" height="80" viewBox="0 0 80 80" fill="none"><path d="M40 56.25C46.9036 56.25 52.5 50.6536 52.5 43.75C52.5 36.8464 46.9036 31.25 40 31.25C33.0964 31.25 27.5 36.8464 27.5 43.75C27.5 50.6536 33.0964 56.25 40 56.25Z" stroke="#292F78" stroke-width="3" stroke-linecap="round" stroke-linejoin="round"></path><path d="M61.25 36.25C64.1617 36.2452 67.0343 36.9207 69.6386 38.2229C72.2429 39.525 74.5069 41.4177 76.25 43.75" stroke="#292F78" stroke-width="3" stroke-linecap="round" stroke-linejoin="round"></path><path d="M3.75 43.75C5.49312 41.4177 7.75712 39.525 10.3614 38.2229C12.9657 36.9207 15.8383 36.2452 18.75 36.25" stroke="#292F78" stroke-width="3" stroke-linecap="round" stroke-linejoin="round"></path><path d="M22.0015 67.5018C23.6478 64.1302 26.208 61.2887 29.3904 59.3012C32.5727 57.3136 36.2494 56.2598 40.0015 56.2598C43.7535 56.2598 47.4302 57.3136 50.6126 59.3012C53.795 61.2887 56.3551 64.1302 58.0015 67.5018" stroke="#292F78" stroke-width="3" stroke-linecap="round" stroke-linejoin="round"></path><path d="M18.7509 36.25C16.8529 36.2519 14.9935 35.7137 13.3901 34.6981C11.7866 33.6826 10.5053 32.2317 9.69583 30.515C8.88634 28.7982 8.58213 26.8866 8.81873 25.0034C9.05533 23.1202 9.82298 21.3433 11.032 19.8801C12.241 18.417 13.8414 17.3282 15.6462 16.7408C17.4511 16.1535 19.3858 16.0919 21.2243 16.5633C23.0628 17.0347 24.7292 18.0196 26.0288 19.4028C27.3284 20.7861 28.2075 22.5107 28.5634 24.375" stroke="#292F78" stroke-width="3" stroke-linecap="round" stroke-linejoin="round"></path><path d="M51.436 24.375C51.7919 22.5107 52.671 20.7861 53.9706 19.4028C55.2702 18.0196 56.9366 17.0347 58.7751 16.5633C60.6136 16.0919 62.5484 16.1535 64.3532 16.7408C66.158 17.3282 67.7584 18.417 68.9674 19.8801C70.1764 21.3433 70.9441 23.1202 71.1807 25.0034C71.4173 26.8866 71.1131 28.7982 70.3036 30.515C69.4941 32.2317 68.2128 33.6826 66.6093 34.6981C65.0059 35.7137 63.1465 36.2519 61.2485 36.25" stroke="#292F78" stroke-width="3" stroke-linecap="round" stroke-linejoin="round"></path></svg>