<svg xmlns="http://www.w3.org/2000/svg" width="21" height="21" viewBox="0 0 21 21" fill="none"><path d="M20.8831 19.3005C19.391 16.7301 17.0027 14.8009 14.176 13.8828C15.5309 13.0771 16.5838 11.8488 17.1729 10.3867C17.7621 8.92459 17.8549 7.30948 17.4371 5.7895C17.0193 4.26951 16.1141 2.92874 14.8604 1.97314C13.6067 1.01755 12.0739 0.5 10.4976 0.5C8.9212 0.5 7.38845 1.01755 6.13476 1.97314C4.88107 2.92874 3.97579 4.26951 3.558 5.7895C3.14022 7.30948 3.23303 8.92459 3.82218 10.3867C4.41133 11.8488 5.46423 13.0771 6.81913 13.8828C3.99244 14.8009 1.6041 16.7301 0.112001 19.3005C0.0387436 19.421 0 19.5593 0 19.7003C0 19.8413 0.0387436 19.9796 0.112001 20.1001C0.180348 20.2227 0.280498 20.3245 0.401886 20.3949C0.523275 20.4652 0.661404 20.5015 0.801706 20.5H20.1934C20.3337 20.5015 20.4718 20.4652 20.5932 20.3949C20.7146 20.3245 20.8148 20.2227 20.8831 20.1001C20.9564 19.9796 20.9951 19.8413 20.9951 19.7003C20.9951 19.5593 20.9564 19.421 20.8831 19.3005Z" fill="#091E96"></path></svg>