<svg xmlns="http://www.w3.org/2000/svg" width="33" height="33" viewBox="0 0 33 33" fill="none"><rect width="33" height="33" rx="16.5" fill="#FF0000"></rect><path d="M25.6783 11.9614C25.4628 11.1514 24.8254 10.5124 24.0145 10.2934C22.5482 9.90039 16.6653 9.90039 16.6653 9.90039C16.6653 9.90039 10.7853 9.90039 9.31601 10.2934C8.50807 10.5094 7.8707 11.1484 7.65225 11.9614C7.26025 13.4314 7.26025 16.5004 7.26025 16.5004C7.26025 16.5004 7.26025 19.5694 7.65225 21.0394C7.8677 21.8494 8.50508 22.4884 9.31601 22.7074C10.7853 23.1004 16.6653 23.1004 16.6653 23.1004C16.6653 23.1004 22.5482 23.1004 24.0145 22.7074C24.8224 22.4914 25.4598 21.8524 25.6783 21.0394C26.0703 19.5694 26.0703 16.5004 26.0703 16.5004C26.0703 16.5004 26.0703 13.4314 25.6783 11.9614Z" fill="white"></path><path d="M14.7861 19.3294L19.6726 16.5004L14.7861 13.6714V19.3294Z" fill="#FF0000"></path></svg>